<?xml version="1.0" encoding="utf-8"?>
<svg version="1.1" id="page_x5F_top" xmlns="http://www.w3.org/2000/svg" xmlns:xlink="http://www.w3.org/1999/xlink" x="0px" y="0px" width="56px" height="56px" viewBox="0 0 56 56" style="enable-background:new 0 0 56 56;" xml:space="preserve">
<style type="text/css">.st0{fill-rule:evenodd;clip-rule:evenodd;fill:#777777;}.st1{fill-rule:evenodd;clip-rule:evenodd;fill:#FFFFFF;}</style>
<path class="st0" d="M3,0h50c1.66,0,3,1.34,3,3v50c0,1.66-1.34,3-3,3H3c-1.66,0-3-1.34-3-3V3C0,1.34,1.34,0,3,0z"/>
<path class="st1" d="M9.75,34.89c-0.33,0.34-0.33,0.88,0,1.21l2.65,2.65c0.33,0.33,0.87,0.33,1.21,0l13.78-13.79 c0.34-0.33,0.88-0.33,1.22,0l13.78,13.79c0.34,0.33,0.88,0.33,1.21,0l2.65-2.65c0.33-0.33,0.33-0.87,0-1.21L28.61,17.25 c-0.34-0.33-0.88-0.33-1.22,0L9.75,34.89z"/>
</svg>